<svg xmlns="http://www.w3.org/2000/svg" viewBox="0 0 400 400">
    <path fill="#fbfafa" stroke="#fbfafa"
          d="M25 3.841c0 2.113.439 7.4.975 11.75S28.329 36.1 30.014 51.5c1.685 15.4 3.709 31.6 4.498 36 3.2 17.853 4.475 27.75 5.519 42.84.603 8.712 1.968 19.247 3.033 23.41S45 164.355 45 168.065v6.745l-3.75-.432c-4.364-.502-5.472.26-10.348 7.122-12.738 17.928-17.255 35.862-13.474 53.5 4.129 19.264 15.632 40 22.188 40 3.046 0 3.331-.756 4.189-11.115.621-7.487.909-8.385 2.695-8.385 1.678 0 2.727 2.174 6.522 13.524 6.633 19.835 11.481 27.14 23.206 34.969 5.617 3.751 10.245 5.477 29.522 11.011l7.25 2.081v5.835c0 7.073.837 7.926 8.897 9.065 7.433 1.051 7.638 1.178 10.254 6.333 1.167 2.3 3.186 5.454 4.486 7.009 4.876 5.832 1.637 8.673-9.892 8.673-9.701 0-12.733 1.243-20.444 8.381-4.719 4.37-6.981 7.517-9.954 13.852-6.944 14.796-8.925 18.255-10.647 18.586-1.133.219-1.7-.326-1.7-1.633 0-1.079-1.612-4.305-3.582-7.169-2.758-4.009-3.696-6.509-4.077-10.862-.674-7.697-1.977-9.966-6.501-11.321-5.336-1.599-6.657-3.486-7.726-11.034-1.153-8.137-2.404-10.584-5.86-11.451-7.432-1.865-40.831 4.765-47.114 9.353-5.779 4.219-9.088 18.204-9.122 38.55L0 400.005l200.25-.253 200.25-.252.069-12.5.068-12.5-.568 11c-.705 13.625-2.036 10.58-2.055-4.701-.036-28.008-4.039-32.537-33.439-37.831-22.187-3.996-25.757-2.94-27.157 8.032-1.042 8.166-1.889 9.672-6.617 11.768-5.799 2.571-6.458 3.643-7.056 11.487-.39 5.107-1.117 7.547-2.982 10-1.357 1.785-3.212 4.692-4.123 6.461-.923 1.792-2.213 3.001-2.916 2.732-1.896-.728-6.006-8.029-9.259-16.448-3.137-8.119-9.741-15.663-19.266-22.011-4.372-2.913-5.082-3.078-10.199-2.37-13.911 1.925-15.794.313-9.68-8.285 1.891-2.659 3.772-5.959 4.181-7.334 1.279-4.299 2.47-5 8.499-5 7.017 0 7.801-.805 8.646-8.883.767-7.344-.223-6.598 13.567-10.217 26.699-7.004 36.905-16.646 47.309-44.694 4.977-13.418 6.77-13.574 8.089-.702 1.444 14.1 8.397 10.035 18.869-11.031 13.371-26.898 12.191-46.549-4.302-71.652-5.567-8.473-7.497-9.967-12.381-9.581-3.295.26-3.297.257-3.547-4.74-1.525-30.445-4.752-49.891-11.159-67.259l-3.048-8.26.941-27.74c.518-15.258 1.246-35.484 1.62-44.948l.678-17.207-2.514-1.146c-3.505-1.597-6.39.146-7.09 4.283-.305 1.802-.599 19.457-.654 39.232-.055 19.775-.345 36.199-.644 36.498-.298.299-1.504-.806-2.679-2.455-26.63-37.381-99.612-54.721-178.201-42.338-34.566 5.446-56.186 15.412-75.5 34.802-14.961 15.021-21.041 27.446-25.508 52.125-2.809 15.523-3.449 18.289-4.084 17.654-.225-.225.098-4.182.718-8.793.826-6.134.835-10.538.035-16.416-.601-4.417-1.808-14.782-2.682-23.032-.873-8.25-2.232-19.05-3.018-24-2.319-14.597-4.517-34.644-7.045-64.25L33.797 0H25v3.841m142.91 58.582c-.232.233-5.035.931-10.672 1.551-5.637.62-13.734 2.024-17.994 3.118-16.261 4.181-19.91 5.976-15.494 7.624.963.359 2.313 1.434 3.001 2.389 2.39 3.316 14.433 2.744 22.749-1.081 2.897-1.333 20.228-5.709 25.5-6.44 8.381-1.161 15-3.686 15-5.721 0-1.703-.932-1.863-10.833-1.863-5.959 0-11.024.19-11.257.423M42.42 181.575c-.767 4.087.962 7.011 2.611 4.417.521-.821.728-2.091.458-2.824-.269-.732-.489-2.195-.489-3.25 0-3.298-1.876-2.093-2.58 1.657m-12.175 28.008c-1.684 1.803-1.57 4.078.24 4.773 1.4.537 3.515-1.979 3.515-4.183 0-1.617-2.438-2-3.755-.59M.385 388c0 6.875.16 9.688.355 6.25.196-3.437.196-9.062 0-12.5-.195-3.437-.355-.625-.355 6.25"
          fill-rule="evenodd"/>
    <path fill="#df5a59" stroke="#df5a59"
          d="M25.999 4.75c-.001 2.612.457 8.35 1.018 12.75.561 4.4 2.377 20.566 4.036 35.924 1.659 15.359 3.469 29.942 4.021 32.408 1.74 7.763 4.77 32.083 5.915 47.472C42.095 148.17 43.073 153 44.975 153c1.477 0 1.197 30.162-.399 43-1.608 12.935-2.132 14.318-5.199 13.732-1.998-.382-2.433.05-2.979 2.959-1.211 6.456-6.845 8.609-9.985 3.816-2.09-3.189-1.29-6.439 2.705-10.989C32.343 201.846 35 200.934 35 203.5c0 3.317 1.645 1.144 3.904-5.154 3.572-9.96 4.011-23.346.765-23.346-2.835 0-5.123 2.41-10.919 11.5-14.286 22.408-15.317 44.844-3.204 69.734C35.898 277.505 43 280.868 43 264.5c0-6.312.373-8.564 1.584-9.57 2.861-2.374 4.782.376 8.504 12.177 5.202 16.497 8.328 22.365 15.973 29.99 8.086 8.065 13.647 10.879 31.031 15.705l13.408 3.723.288 5.987c.314 6.545 1.719 8.484 6.153 8.494 6.409.014 9.997 1.947 12.606 6.793 1.391 2.586 3.638 6.23 4.992 8.099 4.223 5.83 2.273 8.102-6.951 8.102-8.67 0-14.084 1.873-21.319 7.376-7.714 5.866-8.735 7.313-15.617 22.124-6.542 14.079-8.056 15.112-11.425 7.791-1.212-2.635-3.094-6.156-4.182-7.825-1.087-1.669-2.277-5.719-2.644-9-.765-6.846-2.183-8.91-7.272-10.586-4.766-1.569-5.788-3.15-6.583-10.18-.849-7.503-2.289-10.597-5.28-11.348-7.049-1.769-37.957 3.947-45.657 8.444-6.317 3.69-9.603 15.973-10.153 37.956l-.281 11.253 200.162-.253L400.5 399.5l.159-3.5.159-3.5-.733 3.5c-1.101 5.254-1.849 1.213-2.592-14-1.243-25.44-3.106-29.735-14.658-33.799-9.141-3.215-25.714-6.201-34.421-6.201h-7.516l-1.449 3.468c-.797 1.907-1.452 4.72-1.455 6.25-.013 6.776-1.712 9.662-7.229 12.282-4.466 2.121-5.304 2.955-5.523 5.5-.745 8.671-1.64 11.869-4.549 16.261-1.756 2.651-3.675 5.675-4.264 6.72-2.559 4.537-6.487-.234-12.987-15.773-2.818-6.737-4.605-9.543-7.646-12a754.8 754.8 0 0 1-8.436-6.953c-5.643-4.728-7.761-5.234-16.486-3.939-11.385 1.69-12.529-.318-5.874-10.316 2.196-3.3 3.995-6.563 3.997-7.25.008-3.067 3.944-5.25 9.468-5.25 6.472 0 7.535-1.243 7.535-8.812 0-6.085.352-6.365 11.41-9.09 28.88-7.118 39.813-17.463 50.563-47.848 1.8-5.087 3.612-9.25 4.027-9.25 1.795 0 3.196 3.325 4.077 9.682 1.201 8.658 1.464 9.318 3.717 9.318 6.71 0 22.136-32.151 22.191-46.25.008-2.062.47-3.75 1.027-3.75.614 0 .785-1.67.434-4.25-1.692-12.458-4.97-21.199-12.507-33.356-6.638-10.706-7.63-11.566-12.919-11.204l-4.52.31-.665-14c-1.216-25.603-4.846-45.043-11.577-62-2.07-5.215-1.874-31.99.568-77.5.905-16.862.773-17.812-2.601-18.658C334.108 3.057 334 3.935 334 46.691c0 21.911-.389 39.309-.878 39.309-.484 0-2.759-2.438-5.058-5.417-22.156-28.719-65.752-43.66-127.585-43.726-20.578-.022-23.194.17-44.979 3.291-37.279 5.342-60.867 15.979-80.158 36.145-13.807 14.434-19.626 26.897-24.368 52.189-1.737 9.262-3.518 17.78-3.958 18.929-1.744 4.55-2.137-3.001-.701-13.444.8-5.819 1.08-11.318.633-12.446-.441-1.111-1.281-6.971-1.868-13.021-1.084-11.18-3.337-29.724-5.043-41.5C38.066 53.388 33.152 7.028 33.016.75 33.007.337 31.425 0 29.5 0H26l-.001 4.75m140.198 54.43c-.933.374-4.539.711-8.013.75-3.473.038-7.199.543-8.278 1.12-1.08.578-3.412 1.201-5.184 1.385-1.772.183-3.897.551-4.722.817-12.892 4.153-16.138 5.372-19.75 7.421-6.587 3.737-5.143 9.009 3.75 13.69 4.478 2.357 23.257.714 37.705-3.298 2.087-.58 5.431-1.056 7.431-1.059 1.999-.003 4.924-.678 6.5-1.5 1.575-.821 3.764-1.499 4.864-1.506 1.1-.007 3.35-.907 5-2s3.522-1.99 4.16-1.993c.638-.004 3.001-1.212 5.25-2.685 3.606-2.361 4.09-3.129 4.09-6.5 0-2.102-.113-3.876-.25-3.942-1.196-.574-31.254-1.221-32.553-.7M324 121.822c0 2.997 2.845 12.337 4.014 13.178.382.275 1.418 1.85 2.301 3.5 2.433 4.548 2.251.001-.382-9.498-2.709-9.775-5.933-13.677-5.933-7.18m-208.543 6.109c.317.512.118 1.213-.441 1.559-1.199.741-1.327 5.472-.196 7.253.8 1.26 7.132 1.165 12.18-.183 1.375-.367 3.4-.798 4.5-.958 1.1-.159 3.125-.671 4.5-1.137 2.504-.848 3.312-1.029 5.872-1.313 3.314-.367-1.407-3.113-7.888-4.588-7.558-1.718-19.449-2.125-18.527-.633M117.5 164c-1.1.473-1.452.891-.781.93.717.041.956.754.58 1.734-.43 1.119-.256 1.427.531.941.644-.398 1.17-1.338 1.17-2.091 0-.752.787-1.573 1.75-1.825 1.186-.31 1.267-.472.25-.503-.825-.025-2.4.341-3.5.814m7-.064c-1.44.572-.828.768 2.185.698 2.301-.053 3.651-.436 3-.85-1.444-.918-2.577-.885-5.185.152m-3.647 2.317c.504.504 1.981.749 3.282.544 2.001-.315 1.861-.455-.916-.916-1.988-.329-2.921-.183-2.366.372m-1.859 3.63c-18.746 6.086-21.453 29.731-4.539 39.644 19.836 11.624 40.409-16.538 24.74-33.865-4.138-4.576-14.647-7.582-20.201-5.779m146.991 2.495c-5.7 3.022-10.102 9.785-10.748 16.511-2.283 23.754 28.585 32.041 38.755 10.405 8.423-17.919-10.564-36.165-28.007-26.916m-9.985-.123c0 1.525 2.867 2.764 3.571 1.544.412-.715.381-.965-.069-.558-.45.408-1.422.24-2.16-.372-.738-.613-1.342-.889-1.342-.614m-139.793 3.414c-7.674 3.782-10.728 17.104-5.529 24.122C120.928 213.63 140 206.728 140 189.18c0-11.584-12.872-18.894-23.793-13.511m151.182.236c-10.509 6.408-10.87 22.115-.669 29.105 13.58 9.306 30.721-7.138 23.338-22.389-3.969-8.2-14.917-11.443-22.669-6.716m88.538 26.786c-1.559 4.101-.812 7.809 1.573 7.809 2.195 0 3.151-3.77 2.059-8.121-.791-3.151-2.366-3.016-3.632.312m-214.486 7.864c-1.864 1.494-1.852 1.512.309.465 1.238-.6 2.25-1.3 2.25-1.555 0-.765-.519-.544-2.559 1.09m225.759.645c-1.855 1.855-1.422 4.611.922 5.865 2.846 1.524 6.43-1.75 5.415-4.947-.748-2.358-4.373-2.882-6.337-.918m-246.387 3.483c.721.289 1.584.253 1.916-.079.332-.332-.258-.568-1.312-.525-1.165.048-1.402.285-.604.604M106 261c.825.533 1.95.969 2.5.969s.325-.436-.5-.969c-.825-.533-1.95-.969-2.5-.969s-.325.436.5.969m13.813 4.683c.721.289 1.584.253 1.916-.079.332-.332-.258-.568-1.312-.525-1.165.048-1.402.285-.604.604m4.687 1.182c1.1.482 3.575 1.161 5.5 1.51 2.403.436 2.873.36 1.5-.24-1.1-.482-3.575-1.161-5.5-1.51-2.403-.436-2.873-.36-1.5.24m10.25 2.797c.688.278 1.813.278 2.5 0 .688-.277.125-.504-1.25-.504s-1.937.227-1.25.504M141.5 271c1.1.473 2.9.846 4 .83 1.608-.024 1.51-.186-.5-.83-3.419-1.095-6.048-1.095-3.5 0m14.25 2.662c.688.278 1.813.278 2.5 0 .688-.277.125-.504-1.25-.504s-1.937.227-1.25.504m13.063 2.021c.721.289 1.584.253 1.916-.079.332-.332-.258-.568-1.312-.525-1.165.048-1.402.285-.604.604m8 1c.721.289 1.584.253 1.916-.079.332-.332-.258-.568-1.312-.525-1.165.048-1.402.285-.604.604m8 1c.721.289 1.584.253 1.916-.079.332-.332-.258-.568-1.312-.525-1.165.048-1.402.285-.604.604M145.5 369.041c-1.313.537.547.843 5.417.889 4.079.038 7.229-.092 7-.29-1.014-.876-10.61-1.339-12.417-.599M44 376c-.825.533-3.75.979-6.5.99-7.421.031-17.259 3.584-15.313 5.531 1.569 1.568 10.955 1.639 14.774.111 2.244-.897 5.59-1.632 7.437-1.632 3.68 0 6.155-2.117 5.245-4.487-.656-1.711-3.403-1.961-5.643-.513m297.212 2.188c-1.379 1.379-1.675 11.812-.334 11.812 1.831 0 3.115-2.855 3.364-7.485.263-4.899-.857-6.5-3.03-4.327M.232 397c0 1.925.206 2.712.457 1.75.252-.962.252-2.538 0-3.5-.251-.962-.457-.175-.457 1.75"
          fill-rule="evenodd"/>
    <path fill="#b7222a" stroke="#b7222a"
          d="M26 1.731C26 6.66 34.8 82.501 36.01 88c1.747 7.941 3.83 24.111 4.959 38.5 1.433 18.273 1.987 21.708 3.05 18.918 1.781-4.68 3.058-20.713 2.055-25.816-.551-2.806-1.72-11.402-2.596-19.102-.877-7.7-2.26-18.95-3.074-25-.813-6.05-1.918-14.375-2.456-18.5-.953-7.31-4.145-36.717-5.454-50.25C31.851.107 31.795 0 28.92 0 26.818 0 26 .485 26 1.731m310.061 5.154c-1.235 2.309-1.928 77.605-.744 80.865 1.261 3.469 3.674 2.823 3.735-1 .274-16.969 1.118-40.91 2.051-58.178 1.068-19.771 1.03-21.001-.677-22.25-2.417-1.767-3.169-1.67-4.365.563M200.011 39c-.089.825-.284 11.4-.435 23.5-.335 27.017-.73 29.5-4.687 29.5-1.589 0-2.889.42-2.889.933 0 1.017-3.328 2.38-6.5 2.662-7.456.664-22.936 2.593-27.74 3.457-8.117 1.46-20.28.101-21.995-2.456-.506-.755-.739-.707-.75.154-.02 1.637-2.94 1.587-7.143-.12-1.855-.754-3.893-1.18-4.53-.947-.637.232-1.425-.009-1.751-.536-.326-.528-1.487-.725-2.58-.44-1.26.33-2.213-.071-2.606-1.094-.34-.887-1.448-1.613-2.46-1.613-1.013 0-3.026-1.097-4.473-2.438-1.567-1.453-3.271-2.192-4.215-1.83-1.05.403-1.341.213-.862-.562.398-.644.226-1.17-.382-1.17-1.602 0-5.885-9.772-5.287-12.06.279-1.067.891-1.94 1.359-1.94.469 0 .593-.675.277-1.5-.591-1.54-3.932-2.093-4.529-.75-.596 1.342-6.712 5.25-8.216 5.25-.805 0-2.739 1.237-4.298 2.75-1.559 1.513-4.631 4.338-6.827 6.279-4.01 3.546-8.914 9.531-11.242 13.721-2.672 4.81-3.18 5.941-5.275 11.75-1.19 3.3-2.797 7.275-3.571 8.834-.774 1.558-1.681 4.708-2.015 7-.334 2.291-1.186 5.966-1.893 8.166-.708 2.2-1.59 8.5-1.962 14-.371 5.5-1.081 12.475-1.578 15.5-.497 3.025-1.172 9.531-1.5 14.459-.327 4.927-.805 9.297-1.062 9.712-.256.414-.74 4.923-1.076 10.019-.754 11.442-2.365 15.81-5.831 15.81-1.579 0-2.487.566-2.487 1.55 0 4.025-2.99 7.45-6.503 7.45-9.316 0-8.173-13.594 2.27-26.992.211-.27.822.292 1.358 1.25 1.576 2.817 2.651 2.027 3.412-2.508.393-2.338 1.332-5.138 2.088-6.223 1.442-2.068 1.941-12.527.598-12.527-7.269 0-20.991 27.927-21.929 44.629-1.058 18.844 11.253 51.713 20.212 53.962 3.443.864 3.32 1.145 4.212-9.643l.782-9.448h2.912c2.837 0 3.019.32 7.097 12.5 10.123 30.234 19.139 38.645 49.295 45.986 11.181 2.721 12.337 3.65 11.592 9.31-.771 5.863.767 7.411 8.586 8.645 6.307.995 9.931 3.414 9.996 6.671.012.612 1.382 2.825 3.045 4.916 6.491 8.169 4.422 12.472-5.999 12.472-8.258 0-13.2 3.966-9.524 7.643.825.825 1.5 1.918 1.5 2.428 0 1.249-1.725 1.183-2.515-.096-.571-.924-7.003-.649-13.049.558-2.605.52-6.761 6.996-13.335 20.783-5.644 11.837-8.337 13.699-10.389 7.184-.52-1.65-2.457-5.25-4.304-8-2.483-3.698-3.529-6.562-4.016-11-.734-6.694-2.268-9.094-6.392-10-4.825-1.06-7.675-7.372-7.98-17.679-.179-6.029-33.96-2.504-48.861 5.098-6.373 3.251-9.137 13.302-9.151 33.272-.005 6.04-.443 10.96-1.008 11.309-.55.34-1 1.266-1 2.059C0 399.809 26.389 400 198.918 400h198.918l-.469-11.75c-1.07-26.806-2.92-33.889-9.71-37.171-6.803-3.287-25.306-7.276-36.304-7.825-11.775-.588-11.678-.658-12.877 9.246-.953 7.873-1.821 9.323-6.929 11.582-5.757 2.547-6.253 3.362-6.722 11.048-.316 5.171-.968 7.371-2.967 10-1.409 1.853-3.315 4.833-4.235 6.62-3.332 6.468-6.41 3.401-14.876-14.825-4.814-10.366-8.436-14.094-13.3-13.691-1.846.152-3.115-.412-3.85-1.714-3.703-6.557-6.038-7.684-15.21-7.342-10.992.41-12.11-.686-7.804-7.65 3.97-6.422 5.129-8.521 6.641-12.028 1.187-2.754 1.784-3.041 7.285-3.504 8.057-.678 8.491-1.083 8.491-7.933 0-7.251-.121-7.158 14.362-11.037 27.21-7.286 38.215-17.896 47.735-46.019 4.684-13.838 8.054-13.751 9.488.245 1.486 14.506 6.211 10.987 17.809-13.266 11.976-25.043 10.691-41.736-5.105-66.299-6.04-9.391-6.45-9.799-9.55-9.5-3.719.359-4.864 3.898-2.594 8.014 1.175 2.127 2.112 7.218 3.489 18.947.628 5.352-.815 8.852-3.65 8.852-2.681 0-3.535-4.101-2.125-10.208 1.717-7.44.665-17.782-1.81-17.795-.302-.002-.657-4.164-.788-9.25-1.326-51.27-10.693-81.465-31.452-101.381C316.317 70.057 299.35 58 297.778 58c-.497 0-3.238-1.121-6.091-2.491-6.818-3.275-31.83-9.65-38.187-9.734-2.75-.036-5.556-.5-6.235-1.031-1.21-.945-21.679-.197-25.647.937-1.506.43-1.606.713-.5 1.413 1.029.652.807.879-.868.891-1.238.008-2.25.438-2.25.956 0 1.871 2.138 2.199 4.452.682 2.671-1.75 4.516-.519 4.002 2.67-.159.986.573 2.332 1.628 2.99 1.055.659 1.918 1.776 1.918 2.483 0 .706 1.321 1.548 2.936 1.871 3.79.758 4.977 3.363 1.533 3.363-1.528 0-2.469.572-2.469 1.5 0 .825-.659 1.5-1.465 1.5-.805 0-1.945.897-2.531 1.993-.669 1.25-2.547 2.23-5.036 2.628-2.182.349-3.968 1.034-3.968 1.523 0 .489-1.575 1.639-3.5 2.557-2.064.984-3.5 2.4-3.5 3.449 0 2.277-3.583 4.377-4.424 2.592-.322-.683-.421-.005-.219 1.508.201 1.513-.022 2.75-.496 2.75-.473 0-.893-1.013-.931-2.25-.061-1.956-.165-2.011-.789-.426-2.657 6.741-3.992-1.947-3.509-22.824.294-12.679-.874-27.45-1.621-20.5m123.223 84.75c.791 9.586 7.443 23.757 9.599 20.449 1.491-2.288-2.458-21.797-5.05-24.949-2.916-3.546-5.039-1.445-4.549 4.5m-210.484 4.33c-2.276 1.326-2.363 8.6-.141 11.772 1.741 2.486 8.3 2.531 16.391.112 1.925-.575 5.075-1.264 7-1.531 5.023-.695 9.85-2.599 10.431-4.113 1.72-4.484-27.426-9.883-33.681-6.24m1.877 36.327c-27.127 10.096-20.803 51.452 8.166 53.407 28.259 1.906 39.222-37 14.507-51.484-5.564-3.261-16.569-4.194-22.673-1.923m150.792.979c-25.532 11.888-20.478 49.482 7.034 52.321 26.443 2.729 40.245-30.719 20.022-48.52-7.524-6.623-17.874-8.077-27.056-3.801m-146.583 2.521c-6.063 1.242-12.871 6.845-15.254 12.554-8.942 21.426 13.593 41.693 32.808 29.506 21.234-13.465 7.185-47.127-17.554-42.06m149.627.684c-22.366 7.941-19.916 41.275 3.306 44.988 8.885 1.421 19.385-4.226 23.884-12.845 1.637-3.134 3.561-17.984 2.224-17.158-.365.226-.952-.738-1.304-2.142-2.501-9.965-17.245-16.701-28.11-12.843M115.5 170.902c-19.288 8.958-15.072 38.119 6 41.504 11.95 1.92 23.5-8.963 23.5-22.142 0-15.216-15.924-25.667-29.5-19.362m152 .475c-18.145 8.557-16.565 34.369 2.449 40.015 12.919 3.837 26.051-6.763 26.051-21.027 0-15.843-14.576-25.554-28.5-18.988m-150.05 3.974c-14.891 6.757-10.776 29.854 5.6 31.428 15.983 1.536 22.993-20.192 9.713-30.107-3.31-2.471-11.265-3.157-15.313-1.321m149.886 1.285c-5.483 3.555-7.622 7.458-7.622 13.911 0 16.587 20.629 22.96 29.237 9.032 9.283-15.02-7.068-32.376-21.615-22.943M49.06 206.342c-.793 2.085-.849 4.93-.174 8.814.063.361 1.036.416 2.162.121 1.776-.464 2.008-1.204 1.75-5.578-.33-5.588-2.238-7.302-3.738-3.357m315.435 1.821c-.798 3.182 2.312 10.176 4.733 10.642 4.836.932 8.103-7.824 3.675-9.852a107.98 107.98 0 0 1-3.653-1.806c-1.758-.909-2.253-.889-2.265.095-.011.877-.293.82-.932-.19-.723-1.143-1.051-.91-1.558 1.111m-33.379 8.633c-.267 2.984-7.36 16.5-11.488 21.89-11.335 14.802-22.07 20.376-54.128 28.1-29.824 7.186-30.863 7.37-52.198 9.254-21.516 1.9-58.384-3.461-92.506-13.451-19.41-5.682-36.649-15.723-41.789-24.339-1.067-1.788-2.405-3.25-2.973-3.25-.569 0-1.034-.702-1.034-1.559s-.45-1.281-1-.941c-.55.34-1.036-.196-1.079-1.191-.043-.995-.296-1.277-.561-.627-1.331 3.266 8.781 16.023 17.609 22.215 15.63 10.964 47.691 19.712 90.531 24.703 42.523 4.954 111.718-10 133.152-28.775 9.742-8.534 19.584-25.909 17.999-31.776-.254-.939-.465-1.039-.535-.253M141 368.433c0 2.489 3.668 2.786 25.354 2.048 21.127-.718 24.718-1.158 21.08-2.583-3.923-1.536-46.434-1.047-46.434.535m-96.378 3.432c-1.228 1.357-3.769 2.054-9.323 2.557-4.2.381-9.19 1.341-11.09 2.135-1.899.794-4.759 1.443-6.356 1.443-2.216 0-3.14.624-3.904 2.635-1.255 3.299 1.211 7.748 3.857 6.96.932-.278 8.669-.753 17.194-1.057 17.34-.616 18-.897 18-7.664 0-8.114-4.199-11.627-8.378-7.009m294.619 3.121c-1.803 2.887-1.679 20.406.155 21.928 3.955 3.282 10.211-18.907 6.404-22.714-1.832-1.832-5.174-1.431-6.559.786m-331.54 5.646c-1.871 1.871-.71 6.508 1.549 6.188 1.76-.25 2.25-.971 2.25-3.306 0-2.883-2.16-4.521-3.799-2.882"
          fill-rule="evenodd"/>
    <path fill="#2f1d24" stroke="#2f1d24"
          d="M27 2.428c0 1.335.411 5.722.914 9.75.502 4.027 1.434 12.722 2.07 19.322 1.741 18.063 5.897 52.336 7.034 58 1.605 7.998 4.97 35.491 5.081 41.5.055 3.025.441 6.625.857 8l.757 2.5.814-2.999c1.201-4.421 1.102-15.709-.232-26.501-3.309-26.777-4.265-34.049-4.759-36.174-.297-1.28-1.016-6.376-1.596-11.326-1.47-12.524-4.764-42.148-5.929-53.314-.534-5.122-1.232-9.735-1.55-10.25C29.286-.965 27 .02 27 2.428m310.529 5.525c-2.614 4.23-2.74 82.677-.128 79.964.459-.476 2.517-49.186 2.867-67.818.22-11.772-.633-15.554-2.739-12.146m-137.714 117.63c-.102 45.605-.198 92.043-.212 103.196l-.027 20.279-12.038-.279-12.038-.279-.595-37.5c-.662-41.723-1.157-45.582-7.315-57-3.904-7.238-8.16-12.402-13.978-16.956-3.664-2.87-6.757-3.962-6.494-2.294.328 2.074-.322 3.074-2.368 3.646-5.689 1.592-19.818 4.577-22.702 4.797-1.76.134-3.417.596-3.683 1.026-.266.429-1.556.781-2.867.781-3.663 0-5.498-3.543-5.498-10.616 0-6.722.476-7.286 6.332-7.5 2.073-.076 2.494-.287 1.218-.612-7.087-1.802-28.287 8.416-35.743 17.228-.466.55-1.981 2.35-3.368 4-3.952 4.701-9.005 16.196-11.209 25.5-2.867 12.099-.802 38.922 3.733 48.5.521 1.1 1.608 3.66 2.416 5.689 8.897 22.355 34.671 35.119 90.373 44.756 31.705 5.485 47.476 5.386 78.248-.49 52.435-10.012 71.679-19.982 83.368-43.193 4.713-9.358 7.632-20.544 7.632-29.244 0-4.012.428-7.018 1-7.018.592 0 1 3.63 1 8.891 0 27.898-14.745 49.903-40.191 59.976-12.84 5.084-44.108 13.126-57.048 14.674-3.156.378-5.561.973-5.345 1.323.216.35-1.252.656-3.261.679-2.01.024-9.28.566-16.155 1.204-11.852 1.099-16.303.959-38.38-1.211-3.233-.318-6.164-.754-6.512-.969-.349-.216-3.553-.715-7.121-1.11-8.335-.924-9.183-1.06-10.987-1.768-4.265-1.673-20.604-4.418-21.45-3.603-.523.502-1.423.907-2 .899-.578-.009-.375-.498.45-1.087 1.205-.861 1.057-.974-.751-.578-1.239.271-1.998.082-1.687-.42.311-.503-.026-1.073-.749-1.268-.722-.194-3.78-1.174-6.796-2.177-3.016-1.003-6.166-1.886-7-1.962-2.312-.21-16.667-7.09-20.221-9.692-5.394-3.947-15.591-14.891-16.932-18.17-.704-1.722-1.856-3.721-2.562-4.442-.705-.721-2.236-4.546-3.402-8.5-1.166-3.954-2.745-9.117-3.51-11.474-.764-2.357-1.39-5.844-1.39-7.75 0-1.906-.45-3.465-1-3.465s-1-.675-1-1.5-.872-1.5-1.939-1.5c-2.277 0-3.66 6.494-2.781 13.052.829 6.183-3.329 10.756-6.709 7.377-1.715-1.716-2.319-14.429-.685-14.429 1.585 0 2.355-9.004 1.042-12.174-1.818-4.39-2.895-1.713-2.913 7.246-.019 9.575-2.232 16.445-5.855 18.176-1.463.699-2.798 2.232-2.966 3.407-.631 4.408-8.622 7.775-11.536 4.86-.781-.781-1.654-1.186-1.939-.9-.286.285-1.049-1.086-1.697-3.048-.647-1.962-1.657-3.567-2.243-3.567-2.109 0 1.434 24.104 4.612 31.376.751 1.718 2.094 5.162 2.985 7.652 2.279 6.371 8.342 15.748 10.659 16.483 3.289 1.044 3.965-.344 3.965-8.136C42 255.731 43.075 253 46.476 253c3.019 0 2.774-.441 8.016 14.423 4.654 13.197 7.087 18.614 8.898 19.812.61.404.755.741.321.75-.934.018.145 1.41 6.674 8.608 5.209 5.743 16.426 12.33 17.643 10.361.382-.618 1.783-.788 3.317-.404 3.218.808 3.579 2.44.405 1.83-2.077-.399-2.096-.362-.25.478 3.557 1.618 18.547 5.428 19.117 4.859 1.733-1.734 4.383 3.033 4.383 7.883 0 6.066.899 7.052 7.599 8.328 7.465 1.422 8.309 1.962 10.868 6.947 1.306 2.544 3.536 6.175 4.954 8.069 4.489 5.995 2.446 9.66-6.076 10.899l-4.845.704.215 5.603c.319 8.311-1.575 9.746-9.414 7.137-10.074-3.353-13.06-.998-4.051 3.195 2.063.96 3.75 2.145 3.75 2.632 0 .487.667.886 1.482.886s2.999 1.473 4.853 3.274c3.938 3.824 4.207 7.457.948 12.834-2.468 4.073-3.727 7.893-2.6 7.889.754-.003 2.028-2.232 6.978-12.202 1.337-2.693 2.317-3.562 3.589-3.182.962.287 1.75.08 1.75-.459 0-.57 1.098-.687 2.624-.279 1.443.386 6.28.333 10.75-.117 4.469-.451 9.476-.598 11.126-.329 1.65.27 10.287.6 19.193.734 19.698.296 20.196.524 21.024 9.65.709 7.824 1.846 7.938 2.543.255.635-7.004 1.575-9.114 2.959-6.641.681 1.216 1.291 1.394 2.199.641.917-.761 1.897-.362 3.626 1.479 1.844 1.963 2.987 2.385 5.162 1.908 1.623-.357 2.794-.19 2.794.398 0 .557 1.012 1.332 2.25 1.723 1.237.391 2.853 1.568 3.59 2.615.984 1.398 1.679 1.623 2.617.844 1.383-1.147 4.12 1.054 2.868 2.307-.362.362 23.267.658 52.508.658 41.787 0 53.199-.268 53.317-1.25.083-.687.196-6.279.25-12.425.104-11.573 1.134-14.736 5.75-17.648 2.148-1.355 7.85 1.254 7.85 3.592 0 1.179 1.014 1.984 3 2.381 1.65.33 3 1.179 3 1.887 0 .722 1.754 1.584 3.995 1.962 5.585.944 5.788 2.156.495 2.95-2.47.371-4.49 1.148-4.49 1.729 0 .583-1.105.844-2.47.583-1.358-.26-2.251-.118-1.983.314.267.433.028 1.069-.531 1.415-.559.345-1.016 1.786-1.016 3.202 0 1.415-.828 3.301-1.84 4.191-1.012.889-2.146 2.855-2.519 4.367l-.679 2.75H397l-.031-3.25c-.22-22.776-2.665-39.631-6.161-42.472-4.789-3.89-47.612-11.424-49.819-8.765-.477.575-1.457 4.627-2.178 9.005l-1.311 7.961-5 2.366c-6.196 2.932-6.466 3.357-6.485 10.229-.013 4.782-.52 6.274-3.567 10.5-1.954 2.709-4.179 6.383-4.944 8.164-2.194 5.104-5.013 3.208-10.53-7.082-5.576-10.4-5.65-10.482-7.308-8.214-1.308 1.789-5.666.495-5.666-1.683 0-.417-.627-.759-1.393-.759-1.936 0-2.723-2.564-1.652-5.382 1.104-2.904-.335-4.612-3.905-4.633-3.183-.019-3.658-.376-8.449-6.336l-3.9-4.85-6.246.669c-9.248.99-11.311-2.409-6.042-9.959 1.148-1.645 3.438-5.695 5.09-9l3.003-6.009 6.165-.5c7.559-.613 7.757-.804 7.926-7.631.076-3.027.602-5.968 1.171-6.537.985-.985 9.535-3.601 19.232-5.884 19.325-4.55 32.836-18.943 41.792-44.518 5.084-14.518 8.231-14.396 10.326.4 1.527 10.779 3.51 10.463 10.744-1.715 13.529-22.772 17.698-48.911 9.638-60.419l-1.5-2.141v2.163c0 1.19.453 2.444 1.006 2.786 1.322.817.823 16.891-.566 18.211-1.133 1.079-8.44-1.497-8.44-2.974 0-.434-1.517-2.995-3.371-5.69-3.266-4.748-3.408-4.832-4.554-2.69-1.19 2.222-5.044 3.108-5.11 1.175-.02-.57-.637.049-1.372 1.375l-1.336 2.411-1.662-2.536c-2.072-3.163-.945-9.421 2.33-12.936 1.362-1.462 1.978-3.092 1.641-4.345-.296-1.103-.545-3.558-.552-5.455-.011-2.683-.281-3.183-1.214-2.25-3.112 3.112-3.8 1.378-3.792-9.55.01-12.073-1.609-32.93-3.2-41.25a410.582 410.582 0 0 1-1.846-10.5c-1.004-6.331-4.262-17.246-6.355-21.293-.884-1.709-1.607-3.721-1.607-4.47 0-2.597-8.309-15.26-13.278-20.237-2.746-2.75-4.847-5.223-4.669-5.496.633-.973-8.126-6.913-9.446-6.407-.795.305-1.575-.365-1.908-1.641-.312-1.194-1.041-1.863-1.632-1.498-.587.363-1.067.204-1.067-.354 0-2.078-7.16-2.473-10.66-.588-1.837.989-3.34 2.21-3.34 2.713 0 2.018-3.155 3.858-7.212 4.205-2.359.202-4.637.412-5.063.467-.426.054-1.179 1.162-1.673 2.462-.494 1.3-1.869 2.617-3.054 2.927-1.591.416-2.013.19-1.608-.863.842-2.196-1.179-1.69-2.405.601-.597 1.115-1.486 1.78-1.976 1.478-1.031-.638-5.009 3.329-5.009 4.995 0 .619-1.35 2.418-3 3.999s-3 3.465-3 4.187c0 .722-.603 1.313-1.341 1.313C251.664 96 242 107.059 242 110.486c0 .833-.45 1.514-1 1.514s-1-1.111-1-2.469c0-1.712-.432-2.303-1.408-1.928-1.865.716-3.985 5.952-3.034 7.491.493.798.332.956-.47.46-.749-.462-1.15-.232-1.036.596.434 3.166-.182 3.85-3.468 3.85-2.791 0-3.996.732-6.584 4-1.742 2.2-3.757 4-4.477 4-.72 0-1.57.679-1.888 1.509-.319.83-.929 1.452-1.357 1.382-2.029-.333-2.633.244-1.278 1.219 1.239.891 1.174.973-.371.469-2.684-.874-6.418 3.54-6.9 8.156l-.393 3.765-.168-4.191c-.092-2.305-.618-4.469-1.168-4.809-.55-.34-1.06-2.279-1.134-4.309-.177-4.913-1.725 4.407-1.628 9.809l.062 3.5.729-4c.67-3.678.699-3.598.369 1-.942 13.128-1.209 26.745-.451 23 .723-3.571.754-3.463.283 1-.29 2.75-.655 20.525-.812 39.5-.157 18.975-.315 36.863-.351 39.75-.037 2.887-.444 5.25-.904 5.25-.461 0-.929-46.444-1.042-103.208-.112-56.765-.41-103.415-.663-103.667-.252-.252-.541 36.854-.643 82.458m64.799-41.02c-.364.949.117 1.437 1.417 1.437 2.276 0 2.638-1.529.552-2.33a1.534 1.534 0 0 0-1.969.893M232 118.059c0 .582.45.781 1 .441s1-.816 1-1.059-.45-.441-1-.441-1 .477-1 1.059m90.667-.392c-2.281 2.28 3.328 26.439 6.624 28.534 2.141 1.36 4.558.851 5.174-1.091 1.142-3.598-4.42-25.615-6.908-27.345-1.328-.923-4.012-.977-4.89-.098m-197.398 9.026c.973.254 2.323.237 3-.037.677-.274-.119-.481-1.769-.461-1.65.02-2.204.244-1.231.498m7.544.99c.721.289 1.584.253 1.916-.079.332-.332-.258-.568-1.312-.525-1.165.048-1.402.285-.604.604m5.955 1.485c.582.582 1.647.86 2.369.62.749-.25.295-.703-1.057-1.057-1.663-.435-2.054-.305-1.312.437m4.775.763c-.317.512-.193 1.167.274 1.456.467.289.85-.13.85-.931 0-1.686-.316-1.833-1.124-.525m63.536 4.652c.048 1.165.285 1.402.604.605.289-.722.253-1.585-.079-1.917-.332-.332-.568.258-.525 1.312m.193 21.417c0 2.475.195 3.488.434 2.25.238-1.238.238-3.262 0-4.5-.239-1.238-.434-.225-.434 2.25M63 161.059c0 .582.45.781 1 .441s1-.816 1-1.059-.45-.441-1-.441-1 .477-1 1.059m54 2.313c-13.649 4.53-19.544 12.761-19.427 27.128.162 19.921 16.234 31.847 35.652 26.454 20.26-5.626 24.442-35.959 6.775-49.148-6.548-4.889-16.089-6.728-23-4.434m108.638 1.128c-.316.825-.139 1.5.393 1.5.533 0 .969-.675.969-1.5s-.177-1.5-.393-1.5c-.216 0-.652.675-.969 1.5m41.11-.073c-11.734 4.187-19.718 16.888-18.434 29.326 2.474 23.969 31.45 32.955 47.494 14.728 18.544-21.067-2.8-53.425-29.06-44.054M115 169.594c-5.792 2.509-12.046 9.612-11.978 13.606.012.715.852-.5 1.867-2.7 6.791-14.726 28.164-15.588 37.19-1.5 1.586 2.475 2.892 3.972 2.902 3.328.04-2.485-6.716-9.932-10.957-12.078-5.275-2.669-13.706-2.959-19.024-.656m151.25.325c-2.337 1.091-4.25 2.482-4.25 3.091s-.419.849-.931.533a1.106 1.106 0 0 0-1.516.372c-1.068 1.728 1.196 2.093 2.584.416 6.099-7.371 20.441-6.806 28.364 1.118 10.958 10.957 6.141 31.282-8.45 35.654-2.235.67-3.846 1.435-3.58 1.702 1.317 1.316 9.861-3.375 13.335-7.322 9.266-10.527 7.607-26.178-3.599-33.947-5.674-3.933-15.45-4.653-21.957-1.617m-206.611 3.775c-1.126 1.126-.685 2.306.861 2.306.825 0 1.5-.423 1.5-.941 0-1.261-1.562-2.164-2.361-1.365m4.556 2.806c.02 1.65.244 2.204.498 1.231.254-.973.237-2.323-.037-3-.274-.677-.481.119-.461 1.769m55.675-1.564c-14.022 4.408-14.771 23.939-1.186 30.939 8.543 4.401 21.316-5.025 21.316-15.731 0-9.624-11.134-18.036-20.13-15.208m149.632.583c-6.785 3.666-9.502 8.021-9.502 15.231 0 5.436 4.388 13.699 6.786 12.778.725-.278 1.042-.059.706.485-.81 1.31 3.752 2.987 8.123 2.987 15.015 0 21.297-21.354 8.801-29.917-4.393-3.01-10.962-3.699-14.914-1.564M38.683 176.65c-.998.999-.836 5.35.2 5.35 1.208 0 2.24-4.277 1.268-5.249-.432-.432-1.092-.477-1.468-.101M206.272 180c0 2.475.195 3.488.434 2.25.238-1.238.238-3.262 0-4.5-.239-1.238-.434-.225-.434 2.25m50.892-2.697c-3.774 4.547-5.161 13.575-3.179 20.697 1.887 6.782 11.28 15.161 16.725 14.921.985-.043-.039-.728-2.274-1.521-11.91-4.227-17.346-17.606-11.905-29.295 2.502-5.375 2.765-7.371.633-4.802m101.384 1.619c-.35.567-.181 2.73.378 4.805.558 2.075 1.314 6.995 1.68 10.933.918 9.888 3.3 12.598 4.854 5.523.337-1.537 1.497-3.431 2.577-4.21 2.213-1.595 2.54-3.996.783-5.753-.649-.649-2.336-3.551-3.75-6.45-2.46-5.044-5.16-7.051-6.522-4.848m-213.352 11.012c-.238 7.801-2.897 13.815-8.036 18.171-2.013 1.706-2.76 2.644-1.66 2.085 6.708-3.413 10.697-11.195 10.241-19.977l-.349-6.713-.196 6.434m-42.763 1.82c.247 5.966.782 7.949 3.014 11.17 2.55 3.68 9.107 9.076 11.028 9.076.477 0-1.14-1.33-3.595-2.956-5.773-3.824-9.056-9.737-10.002-18.014l-.746-6.53.301 7.254M129.5 212c-1.319.567-1.489.878-.5.914.825.031 2.175-.381 3-.914 1.828-1.181.249-1.181-2.5 0m-5.687 1.683c.721.289 1.584.253 1.916-.079.332-.332-.258-.568-1.312-.525-1.165.048-1.402.285-.604.604m99.266 32.9c.048 1.165.285 1.402.604.605.289-.722.253-1.585-.079-1.917-.332-.332-.568.258-.525 1.312m-3.266 2.1c.721.289 1.584.253 1.916-.079.332-.332-.258-.568-1.312-.525-1.165.048-1.402.285-.604.604m-100.306 20.306c-.35.566.051.734.941.393 1.732-.665 2.049-1.382.611-1.382-.518 0-1.216.445-1.552.989m34.306 7.694c.721.289 1.584.253 1.916-.079.332-.332-.258-.568-1.312-.525-1.165.048-1.402.285-.604.604m-7 2c.721.289 1.584.253 1.916-.079.332-.332-.258-.568-1.312-.525-1.165.048-1.402.285-.604.604m-93.19 68.027c-.39.391-3.457.81-6.815.931-3.753.136-6.427.729-6.941 1.54-.46.725-.843.926-.852.447-.008-.48-.577-.425-1.265.123-.687.548-3.5 1.295-6.25 1.659-7.619 1.01-14.831 2.827-16.5 4.158-1.71 1.363-6.315 2.925-6.867 2.329-.788-.85-3.971 8.975-4.584 14.147-.356 3.001-.742 10.519-.859 16.706L2.478 400h98.484l.764-2.75c1.346-4.84.707-14.245-1.089-16.041-2.227-2.227-3.863-.527-8.675 9.008-4.826 9.564-6.966 10.093-10.303 2.547-1.306-2.954-3.777-6.968-5.49-8.919-2.03-2.312-3.172-4.73-3.279-6.946-.375-7.745-1.936-10.834-6.033-11.937-4.509-1.215-5.507-2.773-6.434-10.039-1.011-7.934-3.759-11.253-6.8-8.213M44.5 359.246c-5.402 1.839-7.942 2.905-12 5.039-2.2 1.156-5.009 2.578-6.242 3.159-1.233.581-2.246 1.393-2.25 1.806-.004.413-.614.75-1.354.75-1.905 0-7.214 2.765-8.663 4.511-.751.905-2.109 1.247-3.533.889-4.315-1.083-7.37 11.323-4.458 18.1l.859 2 .086-2c.061-1.415.322-1.627.894-.726.617.973 1.241.795 2.64-.75C12.35 389.956 15 389.29 15 390.888c0 .881 4.732 1.135 23 1.235 15.564.086 14.715.27 15.946-3.46 2.822-8.55 1.037-27.728-2.704-29.049-.958-.338-2.192-.789-2.742-1.002-.55-.213-2.35.072-4 .634m18.127 8.015c-1.289 4.811-.346 11.302 1.478 10.174 1.161-.717 1.169-11.148.009-11.865-.488-.301-1.157.46-1.487 1.691m76.735.237c-1.41 3.676.869 3.98 27.692 3.705 26.398-.271 33.545-1.122 29.446-3.507-3.552-2.067-56.35-2.25-57.138-.198"
          fill-rule="evenodd"/>
</svg>